<?xml version="1.0" encoding="UTF-8"?>
<svg id="Layer_1" xmlns="http://www.w3.org/2000/svg" version="1.1" viewBox="0 0 595.3 841.9">
  <!-- Generator: Adobe Illustrator 30.4.0, SVG Export Plug-In . SVG Version: 2.1.4 Build 226)  -->
  <defs>
    <style>
      .st0 {
        fill: #eaeaea;
      }
    </style>
  </defs>
  <g id="AAGSAI">
    <g>
      <path class="st0" d="M201.2,362l-22-14.5c-2.6-1.7-3.4-5.2-2.8-7.9l11.6,4.7.6.2c6.7.5,12.9,4.3,19.4,7,7,2.9,12.2,6.2,16.7,12.4,5.1,6.9,11.4,12.4,18.2,17.6l16.4,12.5c5.2-6.1-3.8-8.8-3.5-12.8.3-4,6.7-10.5,12.6-7.6,11.1-1.3,20.1,4.8,22.5,15.8l.9,2.7c.3.8,3.3,1.1,4,.5l9.6-7.9c12.5-8.3,24.2-16.4,37.4-23.5l11-5.8,15-7c5.8-2.7,12.2-4.5,18.6-6.7s3.5,2.3,2.8,3c-3.1,2.8-7.5,5.6-12,6.1l8.8-6.5c-8.5.5-14.9,4.4-22.3,7.8s-15.2,7-22.4,11.5l-27.7,17.2c-3.2,2-6.1,4.4-9.2,6.9,6.7-1.7,11.3-6,17.1-9l28.8-14.9c-6.7,5.5-14.4,9.7-21.9,14.8l-27.9,19c6.6-1.4,13.4-2.8,18.9-6.1l7.6-4.5c5.1-3,10.2-5.8,15.7-8.1,8.1-3.3,14.1-8.4,21.2-13.9s15.3-8.6,21-8.3.3,2.6-.3,2.8c-4.6,1.5-13.2,4.2-17.4,7.8-9.2,7.9-18.2,13.4-29.1,18.1l-19,10.6c-5.3,2.9-10.7,3.6-16.8,5.6s-3.8-.5-6.2-2.1l-2,5-7.1,1.5-7.1,6.8c-12.2,4.4-15.6,15.5-16.2,29l5.3-5.2c2.9-2.8,5.7-7.2,10.2-6.7-4.6,3.4-8.3,6.2-11,10.2l13.5-6.6-.7-2.8,5.6,1.7-6.9-18c5.3,1.3,5.1,5.5,5,9.2,6.4,2.9,1.7,7.4,6.6,10.3-3.1,13.8,6.8,25.1,7.8,33.1l1.9,15.3c.3,2.3,1.1,6.7.2,8.5l-4.2,8.8-15.5-8.2-6.9-6.3c1.4,4.9,4.9,7.3,8.2,10.1,6.2,5.2,9.6,3.1,11.4,6.2-4.3,1.6-9.9,1.2-12.3-1.7l-12.3-15.5c-4.3-5.4-8.2-13-9.4-20s-.3-13.1-.5-19.5l-5.2-4,4.6.5,2.7-12.3c-2.2-.9-8.1-2.1-10.6-1.1s-2.7,4.5-2.5,5c3.6,1.1,4.9,1.4,7.5,3.6-2.9.7-5,0-7.2-.8-1.3,5.8-3,12.5-6.9,16.8l-7.3,8.2c0-5.1,3.9-7.2,6.8-10.7,6.1-7.6,4.3-16,6.6-24.3,5.4-.3,10.3,0,15.1.7l2.7-7.6.9,2.4,6.9-7.6c-.5-3.6-4-4.7-6.9-5.3-9-2-15-9-19.4-16.3-3.8-2.5-7.6-4.9-10.9-8.2l13.4,6.9c-9.1-7.3-17.5-13.5-24.8-22.4s-7.6-8.2-11.1-11.5-4.2-2.1-5.5-2.7c-7.4-3.5-14.4-6.2-21.7-8.6l-.5-.4c-.6.3-1.8.6-2.5.4l-3.6-1.1,9.2,8c3.7,3.3,7.5,6.2,11.2,9l.7.3,14.8,8.7c2.5,1.5,3.7,1.9,7,1.8l1.3,5.8-13.9-9.1-9.6-6.3c-.2-.1-.2-.3-.8-.5h0ZM263.2,384.6c3-5.5,5.9-6.2,10.7-7.7-6-2.6-9,1.2-15.7,4.5l5,3.1h0ZM288.5,398.8c.7.2,2.9.3,2.8-.3l-.6-3c-1.7-9.1-5.5-17.3-13.3-15l4.5,5.7c.9.3,3.4,1.1,3,1.7l-1.5,2.4c-.3.4-1.5,1.3-1.4,1.7l.9,2.3c.4,1,.9,3.4,1.8,3.6l3.7,1h.1ZM272.1,406.4c3-5.4,10-.8,9.5-6.2l-8.2,2c.4-2.6,3.8-4.2,6.9-4.4-.3-3.3-.4-5.5.3-9.1l-4.5-8.4c-6.9,2.3-11.2,7.4-12.9,14l9.9,7.8c-3.9.1-6-.7-9.2-1.7-5.4-1.8-6.3-4.7-10.9-6,4.2,6.2,12,9.7,19.1,11.9h0ZM318.8,383.6c-8.2,3-16.1,6.3-20.9,12.9,8.2-3.7,14.5-7.9,20.9-12.9ZM279.3,409.9l9.9-8.1c-4.5-3.5-6.9,4.5-14.4,7.4.5.7,3.6,1.4,4.5.7ZM273.7,448.9c-3.5-1.4-3.7-1.5-4.2-1.9s1.1-1.8,1.5-1.7c8,2.3,9.8-2,16.8-1.6l-.4-6.9c-5.2-2.6-9.8.2-13.9,3l-8.6,5.8,1.6,7.3,7.4-4h-.2ZM269.6,462.3c6.4-5.4,12.4-7.6,20.9-8.8-.2-2-1.9-5.7-3.5-6.2-2.6.8-6.8,1.5-8.5,2.6l-12.2,8.1c.8,1.3,2.3,3.3,3.3,4.2h0ZM278.8,467c2.9-3.1,8.4-3.7,12.9-3.1l-1.6-8.4c-6.5,1.8-12.2,3.6-17,6.9l-4.2,4.8,3.8,6.5,6.1-6.7h0ZM280.7,484.5l14.1-8-2.5-10.2c-10.2-1.6-12.9,4.5-20,9.9l8.4,8.3h0ZM290.8,491.2l5.8,2.3c.2-5.4,0-9.2-.7-14.7l-12.8,7.2c2.6,2.5,4.9,4.1,7.8,5.3h0Z"/>
      <path class="st0" d="M187.1,400.9l-12.8,1.8,6.8,7.6c4.7,6.8,11.8,11.1,19.6,14.1,5.7,7.5,13.8,9.6,23.4,9,14.7-2.9,25.9-13.1,40.3-18.2-4.1,3.2-8.7,5.7-13.6,8.2l-18.5,9.6-2.6,3.3-17-.3c-5.3,0-10.4-4.2-14.6-7l-9.7-6.4c-9.1-6-16.1-14.5-22.8-22.9l11.4-.7-10.3-2.3,10.2.2,27-.7c8.9-.2,18.2.2,26.4,3.6s9.9,4.1,15.5,5.9c-2-3.6-3.6-5.8-1.8-8.8,2.5,4.5,4.8,7.6,9.3,9.9,1.6,3.6,4.9,4.8,9.5,2.6,1.2-.5,2.1.5,1.6,2.6l-15.5.4.4-2.8c0,.3-7.7-1-14.2-3.6s-18.3-6.6-22.3-6.6h-20.6c-1.1,0-4,1.3-5.2,1.5h.1Z"/>
      <path class="st0" d="M361.4,411.2c10.7-6.8,20.1-4.2,27.1-10.6-5-4.3-9.5-1.2-14.1-1.4-7.9-.3-15.3-2.3-23.2.4l5.4,1.5-54.1,10.7c2.1.5,5.4,1.3,7,1.4l32.1.5-18,1.8c-9.2.1-17.6-.4-26.6-2.5,0-1.1,0-2.2.5-2.2s2.8.4,3.5.2l18.9-4,22-3.9c-1-1.9-1.6-2.7-2.2-2.7l-34.8,6.5c-5.8,1.1-11.6,4.1-17.9,2.1l66.3-13.4c7.5.2,15.1-1.2,20.3,1.1,8.9-.5,17.9-.8,17.4,5.3l-13.5,7.8c-9-.4-14.8,6-21.1,10.7l-13,9.6c-4.2-.9-9.2,4.1-14,4.6-7.9-.7-14-2.2-20.5-5.7-9.5-5.2-17.1-5.1-18.2-10.7l10.7,5.3c21.4,10.6,28.6,13.1,45.5-.7l14.3-11.7h.2Z"/>
      <path class="st0" d="M391.9,350.4l-25.1,10.7c0-2.1,2.4-2.8,4.3-3.7,8.6-3.7,16.1-6.9,25-10.2-.8,5-3.1,6.8-4.3,3.2h.1Z"/>
      <path class="st0" d="M284.9,354.3c-3.1,5.1-3.4,11.2-7.3,15.5,2.3-11.1,7.3-21.4,15.7-29.6l-8.5,14h0Z"/>
      <path class="st0" d="M255.6,483.8c0,.6-.9,2-1.4,2.2s-2.4,0-2.3-.5l.3-3.1c.3-2.5-1.2-6.4,1.8-8.6l1.7,10h-.1Z"/>
      <path class="st0" d="M250.8,465.9v-3s-.6-.1-2.3-.6c.5-1.9,2.7-4.3,5.1-5.6l-1,8.5-.2,2.1c0,.4-1.6-.9-1.6-1.4Z"/>
    </g>
  </g>
</svg>